<?xml version="1.0"?>
<svg version="1.1" xmlns="http://www.w3.org/2000/svg" xmlns:xlink="http://www.w3.org/1999/xlink" width="200" height="72">
    <desc iVinci="yes" version="4.6" gridStep="20" showGrid="no" snapToGrid="no" codePlatform="0"/>
    <g id="Layer1" name="Layer 1" opacity="1">
        <g id="Shape1">
            <desc shapeID="1" type="0" basicInfo-basicType="0" basicInfo-roundedRectRadius="12" basicInfo-polygonSides="6" basicInfo-starPoints="5" bounding="rect(-6.68875,-8.2775,13.3775,16.555)" text="" font-familyName="" font-pixelSize="20" font-bold="0" font-underline="0" font-alignment="1" strokeStyle="0" markerStart="0" markerEnd="0" shadowEnabled="0" shadowOffsetX="0" shadowOffsetY="2" shadowBlur="4" shadowOpacity="160" blurEnabled="0" blurRadius="4" transform="matrix(1,0,0,1,142.378,52.5552)" pers-center="0,0" pers-size="0,0" pers-start="0,0" pers-end="0,0" locked="0" mesh="" flag=""/>
            <path id="shapePath1" d="M149.066,44.2777 L135.689,52.0002 C136.309,53.0727 137.204,53.9839 138.314,54.6252 L149.066,60.8327 L149.066,44.2777 Z" style="stroke:none;fill-rule:nonzero;fill:#ffffff;fill-opacity:1;"/>
        </g>
        <g id="Shape2">
            <desc shapeID="2" type="0" basicInfo-basicType="0" basicInfo-roundedRectRadius="12" basicInfo-polygonSides="6" basicInfo-starPoints="5" bounding="rect(-7.16875,-8.00063,14.3375,16.0013)" text="" font-familyName="" font-pixelSize="20" font-bold="0" font-underline="0" font-alignment="1" strokeStyle="0" markerStart="0" markerEnd="0" shadowEnabled="0" shadowOffsetX="0" shadowOffsetY="2" shadowBlur="4" shadowOpacity="160" blurEnabled="0" blurRadius="4" transform="matrix(1,0,0,1,141.898,44.0006)" pers-center="0,0" pers-size="0,0" pers-start="0,0" pers-end="0,0" locked="0" mesh="" flag=""/>
            <path id="shapePath2" d="M134.729,35.9999 L134.729,48.4162 C134.729,49.6974 135.07,50.9287 135.689,52.0012 L149.067,44.2774 L134.729,35.9999 Z" style="stroke:none;fill-rule:nonzero;fill:#ffffff;fill-opacity:1;"/>
        </g>
        <g id="Shape3">
            <desc shapeID="3" type="0" basicInfo-basicType="0" basicInfo-roundedRectRadius="12" basicInfo-polygonSides="6" basicInfo-starPoints="5" bounding="rect(-7.16875,-8.2775,14.3375,16.555)" text="" font-familyName="" font-pixelSize="20" font-bold="0" font-underline="0" font-alignment="1" strokeStyle="0" markerStart="0" markerEnd="0" shadowEnabled="0" shadowOffsetX="0" shadowOffsetY="2" shadowBlur="4" shadowOpacity="160" blurEnabled="0" blurRadius="4" transform="matrix(1,0,0,1,141.898,36.0002)" pers-center="0,0" pers-size="0,0" pers-start="0,0" pers-end="0,0" locked="0" mesh="" flag=""/>
            <path id="shapePath3" d="M149.066,44.2777 L149.066,27.7227 L134.729,36.0002 L149.066,44.2777 Z" style="stroke:none;fill-rule:nonzero;fill:#ffffff;fill-opacity:1;"/>
        </g>
        <g id="Shape4">
            <desc shapeID="4" type="0" basicInfo-basicType="0" basicInfo-roundedRectRadius="12" basicInfo-polygonSides="6" basicInfo-starPoints="5" bounding="rect(-7.16876,-7.72313,14.3375,15.4463)" text="" font-familyName="" font-pixelSize="20" font-bold="0" font-underline="0" font-alignment="1" strokeStyle="0" markerStart="0" markerEnd="0" shadowEnabled="0" shadowOffsetX="0" shadowOffsetY="2" shadowBlur="4" shadowOpacity="160" blurEnabled="0" blurRadius="4" transform="matrix(1,0,0,1,156.235,60.2786)" pers-center="0,0" pers-size="0,0" pers-start="0,0" pers-end="0,0" locked="0" mesh="" flag=""/>
            <path id="shapePath4" d="M149.066,60.8329 L159.819,67.0417 C160.929,67.6817 162.166,68.0017 163.404,68.0017 L163.404,52.5554 L149.066,60.8329 Z" style="stroke:none;fill-rule:nonzero;fill:#ffffff;fill-opacity:1;"/>
        </g>
        <g id="Shape5">
            <desc shapeID="5" type="0" basicInfo-basicType="0" basicInfo-roundedRectRadius="12" basicInfo-polygonSides="6" basicInfo-starPoints="5" bounding="rect(-7.16876,-8.00062,14.3375,16.0012)" text="" font-familyName="" font-pixelSize="20" font-bold="0" font-underline="0" font-alignment="1" strokeStyle="0" markerStart="0" markerEnd="0" shadowEnabled="0" shadowOffsetX="0" shadowOffsetY="2" shadowBlur="4" shadowOpacity="160" blurEnabled="0" blurRadius="4" transform="matrix(1,0,0,1,141.898,27.9998)" pers-center="0,0" pers-size="0,0" pers-start="0,0" pers-end="0,0" locked="0" mesh="" flag=""/>
            <path id="shapePath5" d="M135.69,19.9992 C135.071,21.0704 134.73,22.3029 134.73,23.5829 L134.73,36.0004 L149.067,27.7229 L135.69,19.9992 Z" style="stroke:none;fill-rule:nonzero;fill:#ffffff;fill-opacity:1;"/>
        </g>
        <g id="Shape6">
            <desc shapeID="6" type="0" basicInfo-basicType="0" basicInfo-roundedRectRadius="12" basicInfo-polygonSides="6" basicInfo-starPoints="5" bounding="rect(-7.16875,-8.2775,14.3375,16.555)" text="" font-familyName="" font-pixelSize="20" font-bold="0" font-underline="0" font-alignment="1" strokeStyle="0" markerStart="0" markerEnd="0" shadowEnabled="0" shadowOffsetX="0" shadowOffsetY="2" shadowBlur="4" shadowOpacity="160" blurEnabled="0" blurRadius="4" transform="matrix(1,0,0,1,170.572,52.5554)" pers-center="0,0" pers-size="0,0" pers-start="0,0" pers-end="0,0" locked="0" mesh="" flag=""/>
            <path id="shapePath6" d="M177.741,60.8329 L177.741,44.2779 L163.403,52.5554 L177.741,60.8329 Z" style="stroke:none;fill-rule:nonzero;fill:#ffffff;fill-opacity:1;"/>
        </g>
        <g id="Shape7">
            <desc shapeID="7" type="0" basicInfo-basicType="0" basicInfo-roundedRectRadius="12" basicInfo-polygonSides="6" basicInfo-starPoints="5" bounding="rect(-7.16812,-8.00063,14.3362,16.0013)" text="" font-familyName="" font-pixelSize="20" font-bold="0" font-underline="0" font-alignment="1" strokeStyle="0" markerStart="0" markerEnd="0" shadowEnabled="0" shadowOffsetX="0" shadowOffsetY="2" shadowBlur="4" shadowOpacity="160" blurEnabled="0" blurRadius="4" transform="matrix(1,0,0,1,184.91,44.0001)" pers-center="0,0" pers-size="0,0" pers-start="0,0" pers-end="0,0" locked="0" mesh="" flag=""/>
            <path id="shapePath7" d="M191.118,52.0007 C191.737,50.9294 192.078,49.6969 192.078,48.4169 L192.078,35.9994 L177.742,44.2782 L191.118,52.0007 Z" style="stroke:none;fill-rule:nonzero;fill:#ffffff;fill-opacity:1;"/>
        </g>
        <g id="Shape8">
            <desc shapeID="8" type="0" basicInfo-basicType="0" basicInfo-roundedRectRadius="12" basicInfo-polygonSides="6" basicInfo-starPoints="5" bounding="rect(-6.68813,-8.2775,13.3763,16.555)" text="" font-familyName="" font-pixelSize="20" font-bold="0" font-underline="0" font-alignment="1" strokeStyle="0" markerStart="0" markerEnd="0" shadowEnabled="0" shadowOffsetX="0" shadowOffsetY="2" shadowBlur="4" shadowOpacity="160" blurEnabled="0" blurRadius="4" transform="matrix(1,0,0,1,184.429,52.5552)" pers-center="0,0" pers-size="0,0" pers-start="0,0" pers-end="0,0" locked="0" mesh="" flag=""/>
            <path id="shapePath8" d="M177.741,44.2777 L177.741,60.8327 L188.493,54.6252 C189.603,53.9839 190.498,53.0727 191.117,52.0002 L177.741,44.2777 Z" style="stroke:none;fill-rule:nonzero;fill:#ffffff;fill-opacity:1;"/>
        </g>
        <g id="Shape9">
            <desc shapeID="9" type="0" basicInfo-basicType="0" basicInfo-roundedRectRadius="12" basicInfo-polygonSides="6" basicInfo-starPoints="5" bounding="rect(-7.16876,-8.2775,14.3375,16.555)" text="" font-familyName="" font-pixelSize="20" font-bold="0" font-underline="0" font-alignment="1" strokeStyle="0" markerStart="0" markerEnd="0" shadowEnabled="0" shadowOffsetX="0" shadowOffsetY="2" shadowBlur="4" shadowOpacity="160" blurEnabled="0" blurRadius="4" transform="matrix(1,0,0,1,184.91,35.9998)" pers-center="0,0" pers-size="0,0" pers-start="0,0" pers-end="0,0" locked="0" mesh="" flag=""/>
            <path id="shapePath9" d="M177.741,27.7223 L177.741,44.2773 L192.078,35.9998 L177.741,27.7223 Z" style="stroke:none;fill-rule:nonzero;fill:#ffffff;fill-opacity:1;"/>
        </g>
        <g id="Shape10">
            <desc shapeID="10" type="0" basicInfo-basicType="0" basicInfo-roundedRectRadius="12" basicInfo-polygonSides="6" basicInfo-starPoints="5" bounding="rect(-7.16876,-7.72313,14.3375,15.4463)" text="" font-familyName="" font-pixelSize="20" font-bold="0" font-underline="0" font-alignment="1" strokeStyle="0" markerStart="0" markerEnd="0" shadowEnabled="0" shadowOffsetX="0" shadowOffsetY="2" shadowBlur="4" shadowOpacity="160" blurEnabled="0" blurRadius="4" transform="matrix(1,0,0,1,170.572,60.2783)" pers-center="0,0" pers-size="0,0" pers-start="0,0" pers-end="0,0" locked="0" mesh="" flag=""/>
            <path id="shapePath10" d="M163.404,52.5552 L163.404,68.0014 C164.641,68.0014 165.879,67.6814 166.987,67.0414 L177.741,60.8327 L163.404,52.5552 Z" style="stroke:none;fill-rule:nonzero;fill:#ffffff;fill-opacity:1;"/>
        </g>
        <g id="Shape11">
            <desc shapeID="11" type="0" basicInfo-basicType="0" basicInfo-roundedRectRadius="12" basicInfo-polygonSides="6" basicInfo-starPoints="5" bounding="rect(-7.16875,-8.2775,14.3375,16.555)" text="" font-familyName="" font-pixelSize="20" font-bold="0" font-underline="0" font-alignment="1" strokeStyle="0" markerStart="0" markerEnd="0" shadowEnabled="0" shadowOffsetX="0" shadowOffsetY="2" shadowBlur="4" shadowOpacity="160" blurEnabled="0" blurRadius="4" transform="matrix(1,0,0,1,156.235,19.4447)" pers-center="0,0" pers-size="0,0" pers-start="0,0" pers-end="0,0" locked="0" mesh="" flag=""/>
            <path id="shapePath11" d="M163.404,19.4447 L149.066,11.1672 L149.066,27.7222 L163.404,19.4447 Z" style="stroke:none;fill-rule:nonzero;fill:#ffffff;fill-opacity:1;"/>
        </g>
        <g id="Shape12">
            <desc shapeID="12" type="0" basicInfo-basicType="0" basicInfo-roundedRectRadius="12" basicInfo-polygonSides="6" basicInfo-starPoints="5" bounding="rect(-7.16876,-8.2775,14.3375,16.555)" text="" font-familyName="" font-pixelSize="20" font-bold="0" font-underline="0" font-alignment="1" strokeStyle="0" markerStart="0" markerEnd="0" shadowEnabled="0" shadowOffsetX="0" shadowOffsetY="2" shadowBlur="4" shadowOpacity="160" blurEnabled="0" blurRadius="4" transform="matrix(1,0,0,1,170.572,19.4447)" pers-center="0,0" pers-size="0,0" pers-start="0,0" pers-end="0,0" locked="0" mesh="" flag=""/>
            <path id="shapePath12" d="M163.404,19.4447 L177.741,27.7222 L177.741,11.1672 L163.404,19.4447 Z" style="stroke:none;fill-rule:nonzero;fill:#ffffff;fill-opacity:1;"/>
        </g>
        <g id="Shape13">
            <desc shapeID="13" type="0" basicInfo-basicType="0" basicInfo-roundedRectRadius="12" basicInfo-polygonSides="6" basicInfo-starPoints="5" bounding="rect(-6.68875,-8.27812,13.3775,16.5562)" text="" font-familyName="" font-pixelSize="20" font-bold="0" font-underline="0" font-alignment="1" strokeStyle="0" markerStart="0" markerEnd="0" shadowEnabled="0" shadowOffsetX="0" shadowOffsetY="2" shadowBlur="4" shadowOpacity="160" blurEnabled="0" blurRadius="4" transform="matrix(1,0,0,1,142.378,19.4448)" pers-center="0,0" pers-size="0,0" pers-start="0,0" pers-end="0,0" locked="0" mesh="" flag=""/>
            <path id="shapePath13" d="M135.69,19.9992 L149.067,27.7229 L149.067,11.1667 L138.313,17.3754 C137.205,18.0154 136.308,18.9279 135.69,19.9992 Z" style="stroke:none;fill-rule:nonzero;fill:#ffffff;fill-opacity:1;"/>
        </g>
        <g id="Shape14">
            <desc shapeID="14" type="0" basicInfo-basicType="0" basicInfo-roundedRectRadius="12" basicInfo-polygonSides="6" basicInfo-starPoints="5" bounding="rect(-7.16876,-8,14.3375,16)" text="" font-familyName="" font-pixelSize="20" font-bold="0" font-underline="0" font-alignment="1" strokeStyle="0" markerStart="0" markerEnd="0" shadowEnabled="0" shadowOffsetX="0" shadowOffsetY="2" shadowBlur="4" shadowOpacity="160" blurEnabled="0" blurRadius="4" transform="matrix(1,0,0,1,184.91,27.9998)" pers-center="0,0" pers-size="0,0" pers-start="0,0" pers-end="0,0" locked="0" mesh="" flag=""/>
            <path id="shapePath14" d="M177.741,27.7223 L192.078,35.9998 L192.078,23.5836 C192.078,22.3036 191.737,21.0711 191.117,19.9998 L177.741,27.7223 Z" style="stroke:none;fill-rule:nonzero;fill:#ffffff;fill-opacity:1;"/>
        </g>
        <g id="Shape15">
            <desc shapeID="15" type="0" basicInfo-basicType="0" basicInfo-roundedRectRadius="12" basicInfo-polygonSides="6" basicInfo-starPoints="5" bounding="rect(-6.68813,-8.2775,13.3763,16.555)" text="" font-familyName="" font-pixelSize="20" font-bold="0" font-underline="0" font-alignment="1" strokeStyle="0" markerStart="0" markerEnd="0" shadowEnabled="0" shadowOffsetX="0" shadowOffsetY="2" shadowBlur="4" shadowOpacity="160" blurEnabled="0" blurRadius="4" transform="matrix(1,0,0,1,184.429,19.4448)" pers-center="0,0" pers-size="0,0" pers-start="0,0" pers-end="0,0" locked="0" mesh="" flag=""/>
            <path id="shapePath15" d="M177.741,27.7223 L191.117,19.9998 C190.498,18.9273 189.603,18.0161 188.493,17.3748 L177.741,11.1673 L177.741,27.7223 Z" style="stroke:none;fill-rule:nonzero;fill:#ffffff;fill-opacity:1;"/>
        </g>
        <g id="Shape16">
            <desc shapeID="16" type="0" basicInfo-basicType="0" basicInfo-roundedRectRadius="12" basicInfo-polygonSides="6" basicInfo-starPoints="5" bounding="rect(-7.16876,-8.00062,14.3375,16.0012)" text="" font-familyName="" font-pixelSize="20" font-bold="0" font-underline="0" font-alignment="1" strokeStyle="0" markerStart="0" markerEnd="0" shadowEnabled="0" shadowOffsetX="0" shadowOffsetY="2" shadowBlur="4" shadowOpacity="160" blurEnabled="0" blurRadius="4" transform="matrix(1,0,0,1,156.235,44.5546)" pers-center="0,0" pers-size="0,0" pers-start="0,0" pers-end="0,0" locked="0" mesh="" flag=""/>
            <path id="shapePath16" d="M149.066,44.2777 L163.404,52.5552 L163.404,40.1389 C163.404,38.8577 163.063,37.6264 162.443,36.5539 L149.066,44.2777 Z" style="stroke:none;fill-rule:nonzero;fill:#ffffff;fill-opacity:1;"/>
        </g>
        <g id="Shape17">
            <desc shapeID="17" type="0" basicInfo-basicType="0" basicInfo-roundedRectRadius="12" basicInfo-polygonSides="6" basicInfo-starPoints="5" bounding="rect(-6.68813,-8.2775,13.3763,16.555)" text="" font-familyName="" font-pixelSize="20" font-bold="0" font-underline="0" font-alignment="1" strokeStyle="0" markerStart="0" markerEnd="0" shadowEnabled="0" shadowOffsetX="0" shadowOffsetY="2" shadowBlur="4" shadowOpacity="160" blurEnabled="0" blurRadius="4" transform="matrix(1,0,0,1,155.755,36.0002)" pers-center="0,0" pers-size="0,0" pers-start="0,0" pers-end="0,0" locked="0" mesh="" flag=""/>
            <path id="shapePath17" d="M149.066,44.2777 L162.443,36.5539 C161.824,35.4827 160.929,34.5714 159.819,33.9302 L149.066,27.7227 L149.066,44.2777 Z" style="stroke:none;fill-rule:nonzero;fill:#ffffff;fill-opacity:1;"/>
        </g>
        <g id="Shape18">
            <desc shapeID="18" type="0" basicInfo-basicType="0" basicInfo-roundedRectRadius="12" basicInfo-polygonSides="6" basicInfo-starPoints="5" bounding="rect(-7.16875,-7.72312,14.3375,15.4462)" text="" font-familyName="" font-pixelSize="20" font-bold="0" font-underline="0" font-alignment="1" strokeStyle="0" markerStart="0" markerEnd="0" shadowEnabled="0" shadowOffsetX="0" shadowOffsetY="2" shadowBlur="4" shadowOpacity="160" blurEnabled="0" blurRadius="4" transform="matrix(1,0,0,1,170.572,11.7214)" pers-center="0,0" pers-size="0,0" pers-start="0,0" pers-end="0,0" locked="0" mesh="" flag=""/>
            <path id="shapePath18" d="M177.741,11.1671 L166.987,4.95831 C165.878,4.31831 164.641,3.99831 163.403,3.99831 L163.403,19.4446 L177.741,11.1671 Z" style="stroke:none;fill-rule:nonzero;fill:#ffffff;fill-opacity:1;"/>
        </g>
        <g id="Shape19">
            <desc shapeID="19" type="0" basicInfo-basicType="0" basicInfo-roundedRectRadius="12" basicInfo-polygonSides="6" basicInfo-starPoints="5" bounding="rect(-7.16875,-7.72312,14.3375,15.4462)" text="" font-familyName="" font-pixelSize="20" font-bold="0" font-underline="0" font-alignment="1" strokeStyle="0" markerStart="0" markerEnd="0" shadowEnabled="0" shadowOffsetX="0" shadowOffsetY="2" shadowBlur="4" shadowOpacity="160" blurEnabled="0" blurRadius="4" transform="matrix(1,0,0,1,156.235,11.7216)" pers-center="0,0" pers-size="0,0" pers-start="0,0" pers-end="0,0" locked="0" mesh="" flag=""/>
            <path id="shapePath19" d="M163.404,19.4447 L163.404,3.99844 C162.166,3.99844 160.929,4.31844 159.82,4.95844 L149.066,11.1672 L163.404,19.4447 Z" style="stroke:none;fill-rule:nonzero;fill:#ffffff;fill-opacity:1;"/>
        </g>
        <g id="Shape20">
            <desc shapeID="20" type="0" basicInfo-basicType="0" basicInfo-roundedRectRadius="12" basicInfo-polygonSides="6" basicInfo-starPoints="5" bounding="rect(-7.16876,-8.2775,14.3375,16.555)" text="" font-familyName="" font-pixelSize="20" font-bold="0" font-underline="0" font-alignment="1" strokeStyle="0" markerStart="0" markerEnd="0" shadowEnabled="0" shadowOffsetX="0" shadowOffsetY="2" shadowBlur="4" shadowOpacity="160" blurEnabled="0" blurRadius="4" transform="matrix(1,0,0,1,156.235,52.5554)" pers-center="0,0" pers-size="0,0" pers-start="0,0" pers-end="0,0" locked="0" mesh="" flag=""/>
            <path id="shapePath20" d="M149.066,60.8329 L163.404,52.5554 L149.066,44.2779 L149.066,60.8329 Z" style="stroke:none;fill-rule:nonzero;fill:#ffffff;fill-opacity:1;"/>
        </g>
        <g id="Shape21">
            <desc shapeID="21" type="0" basicInfo-basicType="0" basicInfo-roundedRectRadius="12" basicInfo-polygonSides="6" basicInfo-starPoints="5" bounding="rect(-13.9268,-14.4806,27.8536,28.9611)" text="" font-familyName="" font-pixelSize="20" font-bold="0" font-underline="0" font-alignment="1" strokeStyle="0" markerStart="0" markerEnd="0" shadowEnabled="0" shadowOffsetX="0" shadowOffsetY="2" shadowBlur="4" shadowOpacity="160" blurEnabled="0" blurRadius="4" transform="matrix(1,0,0,1,17.6264,38.6487)" pers-center="0,0" pers-size="0,0" pers-start="0,0" pers-end="0,0" locked="0" mesh="" flag=""/>
            <path id="shapePath21" d="M31.5532,48.7546 L31.5532,52.0771 C30.1135,52.7786 28.5261,53.1293 26.791,53.1293 C25.0559,53.1293 23.8007,52.797 23.0255,52.1325 C22.2871,51.468 21.8626,50.5082 21.7518,49.253 C19.7214,51.8372 17.045,53.1293 13.7225,53.1293 C10.4369,53.1293 7.94501,52.4648 6.24685,51.1358 C4.54868,49.8068 3.6996,47.9425 3.6996,45.5429 C3.6996,40.9283 6.91135,38.2703 13.3348,37.5689 L21.6965,36.6829 L21.6965,35.077 C21.6965,32.9359 21.2535,31.3115 20.3675,30.204 C19.4815,29.0965 18.0786,28.5428 16.159,28.5428 C12.615,28.5428 9.73547,28.9304 7.52047,29.7056 L6.41297,30.0933 L5.41622,26.5493 C6.44989,25.9586 8.01885,25.4233 10.1231,24.9434 C12.2273,24.4266 14.1839,24.1681 15.9928,24.1681 C19.9429,24.1681 22.7486,24.9619 24.4098,26.5493 C26.0711,28.0998 26.9017,30.2963 26.9017,33.1389 L26.9017,48.7546 L31.5532,48.7546 M13.6117,41.1683 C12.2089,41.3529 11.0829,41.7774 10.2338,42.4419 C9.42168,43.1064 9.0156,44.0108 9.0156,45.1553 C9.0156,46.2628 9.4586,47.1488 10.3446,47.8133 C11.2675,48.4408 12.5411,48.7546 14.1655,48.7546 C17.2296,48.7546 19.7399,47.924 21.6965,46.2628 L21.6965,40.2823 L13.6117,41.1683 Z" style="stroke:none;fill-rule:nonzero;fill:#ffffff;fill-opacity:1;"/>
        </g>
        <g id="Shape22">
            <desc shapeID="22" type="0" basicInfo-basicType="0" basicInfo-roundedRectRadius="12" basicInfo-polygonSides="6" basicInfo-starPoints="5" bounding="rect(-11.0473,-21.4024,22.0946,42.8049)" text="" font-familyName="" font-pixelSize="20" font-bold="0" font-underline="0" font-alignment="1" strokeStyle="0" markerStart="0" markerEnd="0" shadowEnabled="0" shadowOffsetX="0" shadowOffsetY="2" shadowBlur="4" shadowOpacity="160" blurEnabled="0" blurRadius="4" transform="matrix(1,0,0,1,45.9507,31.1177)" pers-center="0,0" pers-size="0,0" pers-start="0,0" pers-end="0,0" locked="0" mesh="" flag=""/>
            <path id="shapePath22" d="M49.5778,52.5201 L34.9034,52.5201 L34.9034,50.139 L39.5549,48.3116 L39.5549,29.318 L35.2357,29.318 L35.2357,25.9955 L39.5549,24.2235 L39.5549,20.901 C39.5549,17.2463 40.4778,14.4775 42.3237,12.5948 C44.2064,10.6751 46.846,9.71527 50.2423,9.71527 C51.5713,9.71527 52.7895,9.91831 53.897,10.3244 C55.0415,10.6936 55.8352,11.0812 56.2782,11.4873 L56.998,12.0964 L55.5029,14.9759 C54.4692,14.3852 52.9187,14.0899 50.8514,14.0899 C48.821,14.0899 47.3074,14.699 46.3107,15.9173 C45.3508,17.0986 44.8709,19.2767 44.8709,22.4515 L44.8709,24.8326 L53.7863,24.8326 L53.7863,29.318 L44.8709,29.318 L44.8709,48.3116 L49.5778,50.139 L49.5778,52.5201 Z" style="stroke:none;fill-rule:nonzero;fill:#ffffff;fill-opacity:1;"/>
        </g>
        <g id="Shape23">
            <desc shapeID="23" type="0" basicInfo-basicType="0" basicInfo-roundedRectRadius="12" basicInfo-polygonSides="6" basicInfo-starPoints="5" bounding="rect(-16.2526,-14.4806,32.5051,28.9611)" text="" font-familyName="" font-pixelSize="20" font-bold="0" font-underline="0" font-alignment="1" strokeStyle="0" markerStart="0" markerEnd="0" shadowEnabled="0" shadowOffsetX="0" shadowOffsetY="2" shadowBlur="4" shadowOpacity="160" blurEnabled="0" blurRadius="4" transform="matrix(1,0,0,1,72.3836,38.6487)" pers-center="0,0" pers-size="0,0" pers-start="0,0" pers-end="0,0" locked="0" mesh="" flag=""/>
            <path id="shapePath23" d="M88.6362,48.7546 L88.6362,52.0771 C87.1964,52.7786 85.5721,53.1293 83.7632,53.1293 C81.9543,53.1293 80.6991,52.7601 79.9977,52.0218 C79.2963,51.2465 78.8902,50.1206 78.7794,48.6439 C78.2995,49.1976 77.7458,49.7514 77.1182,50.3051 C76.4906,50.8589 75.4385,51.468 73.9618,52.1325 C72.5221,52.797 71.0085,53.1293 69.4211,53.1293 C66.5416,53.1293 64.3819,52.3356 62.9422,50.7481 C61.5024,49.1238 60.7826,46.9273 60.7826,44.1585 L60.7826,28.5428 L56.1311,28.5428 L56.1311,25.2203 C57.5708,24.5189 59.2321,24.1681 61.1148,24.1681 C63.0345,24.1681 64.3266,24.6296 64.9911,25.5525 C65.6556,26.4385 65.9878,27.8044 65.9878,29.6503 L65.9878,42.2204 C65.9878,44.3985 66.3385,46.0228 67.0399,47.0934 C67.7783,48.164 69.0888,48.6993 70.9716,48.6993 C72.8543,48.6993 74.4602,48.3486 75.7892,47.6471 C77.1182,46.9088 78.1149,46.152 78.7794,45.3768 L78.7794,28.5428 L74.1279,28.5428 L74.1279,25.2203 C75.5677,24.5189 77.2289,24.1681 79.1117,24.1681 C81.0314,24.1681 82.3234,24.6296 82.9879,25.5525 C83.6524,26.4385 83.9847,27.8044 83.9847,29.6503 L83.9847,48.7546 L88.6362,48.7546 Z" style="stroke:none;fill-rule:nonzero;fill:#ffffff;fill-opacity:1;"/>
        </g>
        <g id="Shape24">
            <desc shapeID="24" type="0" basicInfo-basicType="0" basicInfo-roundedRectRadius="12" basicInfo-polygonSides="6" basicInfo-starPoints="5" bounding="rect(-15.062,-21.6793,30.124,43.3586)" text="" font-familyName="" font-pixelSize="20" font-bold="0" font-underline="0" font-alignment="1" strokeStyle="0" markerStart="0" markerEnd="0" shadowEnabled="0" shadowOffsetX="0" shadowOffsetY="2" shadowBlur="4" shadowOpacity="160" blurEnabled="0" blurRadius="4" transform="matrix(1,0,0,1,106.839,45.8475)" pers-center="0,0" pers-size="0,0" pers-start="0,0" pers-end="0,0" locked="0" mesh="" flag=""/>
            <path id="shapePath24" d="M106.341,67.5268 L91.777,67.5268 L91.777,65.1456 L96.4839,63.3183 L96.4839,28.3213 L91.8324,28.3213 L91.8324,25.2756 C93.2721,24.5742 94.8411,24.2235 96.5392,24.2235 C98.2743,24.2235 99.511,24.5373 100.249,25.1649 C100.988,25.7925 101.431,26.7154 101.578,27.9336 C103.387,25.4233 106.082,24.1681 109.663,24.1681 C112.58,24.1681 115.274,25.1649 117.748,27.1584 C119.003,28.1921 120,29.6687 120.738,31.5884 C121.513,33.4711 121.901,35.6677 121.901,38.178 C121.901,40.6884 121.476,42.9403 120.627,44.9338 C119.778,46.8904 118.634,48.4408 117.194,49.5853 C114.278,51.911 110.881,53.0739 107.005,53.0739 C105.455,53.0739 103.683,52.8155 101.689,52.2986 L101.689,63.3183 L106.341,65.1456 L106.341,67.5268 M107.005,48.6993 C109.995,48.6993 112.321,47.8133 113.982,46.0413 C115.681,44.2693 116.53,41.7958 116.53,38.621 C116.53,35.4462 115.717,32.9728 114.093,31.2008 C112.469,29.3918 110.734,28.4874 108.888,28.4874 C105.676,28.4874 103.277,29.5026 101.689,31.533 L101.689,47.7025 C103.756,48.367 105.528,48.6993 107.005,48.6993 Z" style="stroke:none;fill-rule:nonzero;fill:#ffffff;fill-opacity:1;"/>
        </g>
    </g>
</svg>
