<svg id="Calque_1" data-name="Calque 1" xmlns="http://www.w3.org/2000/svg" viewBox="0 0 149.28 54.96"><defs><style>.cls-1{fill:#1d1d1b;}</style></defs><title>JDN</title><path class="cls-1" d="M32.8,38.62c0,10.08-5,19-18,19-8.56,0-12.24-4.4-12.24-8.32A4.12,4.12,0,0,1,7,45.1a4.17,4.17,0,0,1,4.24,4.24c0,2.64-1.84,4-1.84,5.28s1.24,1.72,6.44,1.72c10.08,0,9.72-8.2,9.72-17.08V15.1c0-11-.72-11.92-4.64-12.08L19.2,2.94V2.7H39.12V2.94L37.44,3c-3.92.16-4.64,1.12-4.64,12.08V38.62Z" transform="translate(-2.56 -2.7)"/><path class="cls-1" d="M41.12,56.38l1.68-.08c3.92-.16,4.64-1.12,4.64-12.08V15.1c0-11-.72-11.92-4.64-12.08l-1.68-.08V2.7H67.36c17.68,0,27,12.16,27,26.88s-9.84,27-27,27H41.12V56.38ZM58.48,4C55,4,54.72,4.3,54.72,15.1V44.22c0,10.8.24,11.08,3.76,11.08h8.88c13.52,0,18.8-12,18.8-25.64C86.16,15.5,79.84,4,67.36,4H58.48Z" transform="translate(-2.56 -2.7)"/><path class="cls-1" d="M143.48,46.42V20.9c0-6.56-1.24-17.56-7.32-17.88l-1.68-.08V2.7h17.36V2.94L151,3c-4.4.4-6.16,6.56-6.16,18.88V57.35h-1.12L102.76,8.5V38.42c0,6.56,1.24,17.56,7.32,17.88l1.68,0.08v0.24H94.4V56.38l0.88-.08c4.4-.4,6.16-6.56,6.16-18.88V15.1c0-11-1.68-11.92-5.6-12.08L94.4,2.94V2.7h13.2Z" transform="translate(-2.56 -2.7)"/></svg>