<svg xmlns="http://www.w3.org/2000/svg" viewBox="0 0 375.15 73.57">
<polygon class="logo-nofill" points="56.37 57.53 41.33 57.53 41.33 8.73 21.19 60.06 1.01 9.89 1.01 57.53 0 57.53 0 6.57 15.82 6.57 28.43 38.73 41.18 6.57 56.37 6.57 56.37 57.53"></polygon>
<path class="logo-nofill" d="M83.91,35.74q-2.2.78-3.28,1.2a8.06,8.06,0,0,0-2.17,1.27,7.47,7.47,0,0,0-2.73,3.21,11.81,11.81,0,0,0-.85,4.8A10,10,0,0,0,76,51.48a3.68,3.68,0,0,0,3.29,1.83,4.07,4.07,0,0,0,3.36-1.53,6.38,6.38,0,0,0,1.23-3.94V35.74ZM74,23.91a18.35,18.35,0,0,0-.9,3.81L72.83,30a9.17,9.17,0,0,1-2.65,5.74,7.37,7.37,0,0,1-5.37,2.13,5.13,5.13,0,0,1-5.33-5.37q0-5.56,8.84-9.63a51,51,0,0,1,9.81-3.39,47.75,47.75,0,0,1,5.78-1,33.76,33.76,0,0,1,3.59-.2,10.63,10.63,0,0,1,6.93,2,7.45,7.45,0,0,1,2.36,3.25,16.15,16.15,0,0,1,.63,4.46v23c0,4,1.25,5.42,1.25,5.42l-1.25.68A13.16,13.16,0,0,1,91.6,58.6q-6.19,0-7.61-7.34h0a20.08,20.08,0,0,1-2.32,2.83,12.13,12.13,0,0,1-2.28,1.83,15.87,15.87,0,0,1-9.17,2.62,12.67,12.67,0,0,1-7.87-2.32,7.13,7.13,0,0,1-3.06-6q0-4.84,5.33-7.91,7-3.88,19.28-7.46v-6a27,27,0,0,0-.51-5.58,4,4,0,0,0-4-3,5.5,5.5,0,0,0-2.09.41,6.12,6.12,0,0,0-1.79,1A5,5,0,0,0,74,23.91Z"></path>
<path class="logo-nofill" d="M124.13,20.41a3.71,3.71,0,0,0-2.84-1.16q-3.66,0-5.56,4.92t-1.86,14.47q0,8,1.53,11.57a5.27,5.27,0,0,0,5.14,3.51,4.73,4.73,0,0,0,2.32-.52,10.73,10.73,0,0,0,2.35-2.09V23.42A4.34,4.34,0,0,0,124.13,20.41Zm9.7-18.87q1.08-.3,2.16-0.68T138.64,0V54.29l-3.54,1.07q-1.87.56-3.89,1.27t-4.54,1.46l-1.46.45V52.41a19.81,19.81,0,0,1-5.67,4.66,13,13,0,0,1-6,1.46A11.57,11.57,0,0,1,108,57.19a13.71,13.71,0,0,1-4.45-3.69,17.1,17.1,0,0,1-2.91-5.63,22.82,22.82,0,0,1-1-7.05,23.55,23.55,0,0,1,1.65-8.8,22.65,22.65,0,0,1,4.43-7.16,20.73,20.73,0,0,1,6.56-4.77,19.25,19.25,0,0,1,8.17-1.76,12,12,0,0,1,2.28.19,15.77,15.77,0,0,1,2.54.74V3.92L126,3.74q1.23-.3,2.84-0.75l2.8-.82Z"></path>
<path class="logo-nofill" d="M155.89,38.65q0,8,1.53,11.57a5.27,5.27,0,0,0,5.14,3.51,4.73,4.73,0,0,0,2.32-.52,10.73,10.73,0,0,0,2.35-2.09V23.42a4.34,4.34,0,0,0-1.08-3,3.71,3.71,0,0,0-2.84-1.16q-3.66,0-5.56,4.92T155.89,38.65ZM168,3.74q1.23-.3,2.84-0.75l2.8-.82,2.24-.63q1.08-.3,2.16-0.68T180.65,0V54.29l-3.54,1.07q-1.87.56-3.89,1.27t-4.54,1.46l-1.46.45V52.41a19.81,19.81,0,0,1-5.67,4.66,13,13,0,0,1-6,1.46A11.57,11.57,0,0,1,150,57.19a13.72,13.72,0,0,1-4.45-3.69,17.11,17.11,0,0,1-2.91-5.63,22.82,22.82,0,0,1-1-7.05,23.55,23.55,0,0,1,1.65-8.8,22.65,22.65,0,0,1,4.44-7.16,20.73,20.73,0,0,1,6.56-4.77,19.25,19.25,0,0,1,8.17-1.76,12,12,0,0,1,2.28.19,15.76,15.76,0,0,1,2.54.74V3.92Z"></path>
<path class="logo-nofill" d="M202.51,27.75q0.24,0.55.55,1.13l7.12,14.43q1.42-2.78,2.4-4.89l9.52-19.09h1.15L201.9,62.11q-2.91,6-6.19,8.69a11.22,11.22,0,0,1-7.42,2.77,9.6,9.6,0,0,1-6.45-2.13,7.1,7.1,0,0,1-2.47-5.59,6.31,6.31,0,0,1,1.91-4.7,6.6,6.6,0,0,1,4.81-1.86,6.46,6.46,0,0,1,3.36.82,10.16,10.16,0,0,1,2.91,2.83,8.59,8.59,0,0,1,.6.75,5.69,5.69,0,0,0,.48.56,3.57,3.57,0,0,0,2.65,1.38,4.23,4.23,0,0,0,3-1.34A17,17,0,0,0,202,59.87l0.85-1.68L183.67,19.33h14.68Z"></path>
<path class="logo-fill" style="fill:#f55235" d="M260.14,24.58a7.4,7.4,0,0,0-1.38-3.13,7.14,7.14,0,0,0-3.17-2.32,12.22,12.22,0,0,0-4.62-.82,16.65,16.65,0,0,0-3.59.37l-0.41.1a13.62,13.62,0,0,0-2.91,1.14,21.48,21.48,0,0,0-3.4,2.2,37.66,37.66,0,0,0-3.7,3.47V18.32l-3.06,1q-1.31.41-2.39,0.78t-2.13.71l-2.39.67-2.5.79-1.08.28V57.53H237V26.83q3.07-2.77,5.71-2.77a4.25,4.25,0,0,1,2.09.56A3.07,3.07,0,0,1,246.16,26a4.65,4.65,0,0,1,.45,1.09,9,9,0,0,1,.22,1.49q0.08,0.93.11,2.43c0,0.28,0,.58,0,0.91V57.53h13.54V28.37A22.48,22.48,0,0,0,260.14,24.58Z"></path>
<path class="logo-fill" style="fill:#f55235" d="M283.36,18.32a20.58,20.58,0,0,1,7,1.16A17.4,17.4,0,0,1,296,22.75a17,17,0,0,1,4,5.19,20.52,20.52,0,0,1,2,6.82H276.78q0.08,14.28,12.76,14.28a13.9,13.9,0,0,0,8.17-2.35A9.3,9.3,0,0,0,299.77,45a21.78,21.78,0,0,0,1.94-2.61l0.67,0.3q-0.67,1.83-1.23,3.1a22.46,22.46,0,0,1-1,2.24q-0.56,1-1.19,1.94t-1.5,2A18.14,18.14,0,0,1,291,56.82a19.44,19.44,0,0,1-8.24,1.72,21,21,0,0,1-8-1.5,19.11,19.11,0,0,1-6.42-4.14,18.47,18.47,0,0,1-4.25-6.23,19.51,19.51,0,0,1-1.54-7.79,20.21,20.21,0,0,1,1.61-8,20.49,20.49,0,0,1,4.44-6.53,21,21,0,0,1,6.6-4.4A20.56,20.56,0,0,1,283.36,18.32Zm5,9a13,13,0,0,0-1.53-6,3.89,3.89,0,0,0-3.51-1.87q-3.21,0-4.84,3.7t-1.65,10.75h11.76V31.63q0-.93,0-1.64t-0.08-1.34Q288.39,28,288.31,27.27Z"></path>
<path class="logo-fill" style="fill:#f55235" d="M324.11,20.3a8.19,8.19,0,0,0-3.85-1,5.26,5.26,0,0,0-3.77,1.5,4.84,4.84,0,0,0-1.57,3.66q0,4.58,7.27,6.93L327.4,33q6.11,2,8.84,4.77A9.35,9.35,0,0,1,339,44.66a12.24,12.24,0,0,1-1.27,5.55,13.09,13.09,0,0,1-3.51,4.41,16,16,0,0,1-5.37,2.87,21.2,21.2,0,0,1-6.78,1q-1.09,0-2.13-.08a19.68,19.68,0,0,1-2.24-.3Q316.46,58,315,57.64t-3.44-1l-2.09-.6q-0.82-.22-1.49-0.44t-1.35-.49q-0.63-.22-1.57-0.6L304.3,39.36h0.78a54.5,54.5,0,0,0,4,7.57,35.15,35.15,0,0,0,4.58,5.78,20.56,20.56,0,0,0,4.88,3.62,10.93,10.93,0,0,0,5,1.27,5.44,5.44,0,0,0,4-1.53,5.37,5.37,0,0,0,1.54-4,5.69,5.69,0,0,0-1.57-4.15,14.77,14.77,0,0,0-5.63-3l-3.74-1.3q-7.34-2.5-10.48-5.52a9.68,9.68,0,0,1-3.14-7.23,10.26,10.26,0,0,1,1.27-5,13.28,13.28,0,0,1,3.44-4,16.72,16.72,0,0,1,5.18-2.62,20.93,20.93,0,0,1,6.49-1,40.12,40.12,0,0,1,6.19.49,53.83,53.83,0,0,1,7.38,1.68L335.27,33h-0.79a28.93,28.93,0,0,0-2.91-5.51A27.7,27.7,0,0,0,328,23.13,16.34,16.34,0,0,0,324.11,20.3Z"></path>
<path class="logo-fill" style="fill:#f55235" d="M360.27,20.3a8.19,8.19,0,0,0-3.85-1,5.26,5.26,0,0,0-3.77,1.5,4.84,4.84,0,0,0-1.57,3.66q0,4.58,7.27,6.93L363.56,33q6.11,2,8.84,4.77a9.35,9.35,0,0,1,2.76,6.87,12.24,12.24,0,0,1-1.27,5.55,13.09,13.09,0,0,1-3.51,4.41A16,16,0,0,1,365,57.49a21.2,21.2,0,0,1-6.78,1q-1.09,0-2.13-.08a19.69,19.69,0,0,1-2.24-.3q-1.24-.18-2.69-0.52t-3.44-1l-2.09-.6q-0.82-.22-1.49-0.44t-1.35-.49q-0.63-.22-1.57-0.6l-0.78-15.18h0.78a54.49,54.49,0,0,0,4,7.57,35.16,35.16,0,0,0,4.58,5.78,20.56,20.56,0,0,0,4.88,3.62,10.93,10.93,0,0,0,5,1.27,5.44,5.44,0,0,0,4-1.53,5.37,5.37,0,0,0,1.54-4,5.69,5.69,0,0,0-1.57-4.15A14.77,14.77,0,0,0,358,45l-3.74-1.3q-7.34-2.5-10.48-5.52a9.68,9.68,0,0,1-3.14-7.23,10.26,10.26,0,0,1,1.27-5,13.28,13.28,0,0,1,3.44-4,16.72,16.72,0,0,1,5.18-2.62,20.93,20.93,0,0,1,6.49-1,40.12,40.12,0,0,1,6.19.49,53.84,53.84,0,0,1,7.38,1.68L371.43,33h-0.79a28.93,28.93,0,0,0-2.91-5.51,27.7,27.7,0,0,0-3.59-4.37A16.34,16.34,0,0,0,360.27,20.3Z"></path>
</svg>
