<svg xmlns="http://www.w3.org/2000/svg" viewBox="0 0 350 47.73" fill="#220bab" xml:space="preserve" class="w-[260px] md:w-[160px] mb-1.5 text-light-500 fill-current"><path class="welovedevs_long_svg__st0" d="M94.71 42.76H79.53c-2.26 0-4.09-1.83-4.09-4.09s1.83-4.09 4.09-4.09h15.18c6.84 0 11.61-4.4 11.61-10.7 0-6.4-4.77-10.87-11.61-10.87h-8.27c-2.26 0-4.09-1.83-4.09-4.09s1.83-4.09 4.09-4.09h8.27c11.28 0 19.78 8.19 19.78 19.04 0 10.77-8.5 18.89-19.78 18.89z"></path><path class="welovedevs_long_svg__st0" d="M14.83 42.97h-.07a4.085 4.085 0 0 1-3.8-2.79L1.49 11.86a4.08 4.08 0 0 1 2.58-5.17c2.14-.72 4.45.44 5.17 2.58l5.81 17.38 6.44-17.22c.6-1.6 2.12-2.65 3.83-2.65 1.7 0 3.23 1.06 3.83 2.65l6.53 17.46 4.2-12.01c1.66-4.85 5.16-8.34 9.61-9.55A13.602 13.602 0 0 1 60.22 6.9c2.14-1.32 4.62-2.04 7.15-2.04 3.63 0 7.18 1.5 9.74 4.11 2.58 2.63 4 6.12 4 9.83s-1.43 7.2-4.02 9.83L65.17 40.79a6.946 6.946 0 0 1-9.92.01l-2.92-2.99-4.88-4.98a4.09 4.09 0 0 1 .06-5.78 4.09 4.09 0 0 1 5.78.06l6.92 7.07 11.05-11.29c1.07-1.08 1.67-2.58 1.68-4.11 0-1.53-.6-3.03-1.66-4.1-1.05-1.07-2.44-1.66-3.9-1.66-1.47 0-2.85.59-3.9 1.66l-.33.34c-.77.78-1.82 1.23-2.92 1.23s-2.15-.44-2.92-1.23l-.34-.34c-.46-.47-.99-.85-1.58-1.13-1.17-.56-2.5-.68-3.74-.34-2.54.69-3.67 3.26-4.03 4.34l-7.94 22.69a4.095 4.095 0 0 1-3.81 2.74h-.04c-1.7 0-3.23-1.06-3.83-2.65l-6.66-17.8-6.66 17.8c-.63 1.58-2.15 2.64-3.85 2.64zM135.66 31.91l-3.45-9.95c-.08-.24-.18-.63-.18-.97 0-.92.74-1.82 1.92-1.82 1 0 1.66.63 1.95 1.55l2.16 7.16 2.21-7.14c.29-.95 1.03-1.61 2.05-1.61h.24c1.03 0 1.76.66 2.05 1.61l2.24 7.16 2.21-7.21c.26-.84.87-1.53 1.92-1.53 1.11 0 1.87.84 1.87 1.84 0 .26-.08.63-.13.82l-3.55 10.08c-.42 1.24-1.24 1.79-2.21 1.79h-.13c-.97 0-1.79-.55-2.16-1.71l-2.24-7.11-2.26 7.11c-.37 1.16-1.18 1.71-2.16 1.71h-.13c-.99.01-1.8-.54-2.22-1.78zM161.43 33.75c-4.24 0-7.37-2.98-7.37-7.29v-.05c0-4.03 2.87-7.35 6.98-7.35 4.71 0 6.79 3.87 6.79 6.79 0 1.16-.82 1.92-1.87 1.92h-7.93c.39 1.82 1.66 2.76 3.45 2.76 1.11 0 2.03-.34 2.84-.95.29-.21.55-.32.97-.32.9 0 1.55.68 1.55 1.58 0 .53-.24.92-.53 1.18-1.22 1.07-2.82 1.73-4.88 1.73zm2.58-8.48c-.24-1.79-1.29-3-2.98-3-1.66 0-2.74 1.18-3.05 3h6.03zM170.75 16.06a2 2 0 1 1 4 0v15.53a2 2 0 1 1-4 0V16.06zM177.52 26.46v-.05c0-4.05 3.26-7.35 7.66-7.35 4.37 0 7.61 3.24 7.61 7.29v.05c0 4.05-3.26 7.35-7.66 7.35-4.37 0-7.61-3.24-7.61-7.29zm11.32 0v-.05c0-2.08-1.5-3.9-3.71-3.9-2.29 0-3.66 1.76-3.66 3.84v.05c0 2.08 1.5 3.9 3.71 3.9 2.29 0 3.66-1.76 3.66-3.84zM200.95 33.73h-.21c-1.08 0-1.82-.68-2.26-1.74l-4.32-9.98c-.11-.26-.21-.61-.21-.97 0-.95.87-1.87 1.95-1.87s1.66.61 1.95 1.42l3.03 8.19 3.08-8.24c.26-.68.82-1.37 1.87-1.37s1.92.82 1.92 1.9c0 .34-.13.76-.21.95L203.22 32c-.45 1.01-1.19 1.73-2.27 1.73zM216.28 33.75c-4.24 0-7.37-2.98-7.37-7.29v-.05c0-4.03 2.87-7.35 6.98-7.35 4.71 0 6.79 3.87 6.79 6.79 0 1.16-.82 1.92-1.87 1.92h-7.93c.39 1.82 1.66 2.76 3.45 2.76 1.11 0 2.03-.34 2.84-.95.29-.21.55-.32.97-.32.9 0 1.55.68 1.55 1.58 0 .53-.24.92-.53 1.18-1.22 1.07-2.83 1.73-4.88 1.73zm2.58-8.48c-.24-1.79-1.29-3-2.98-3-1.66 0-2.74 1.18-3.05 3h6.03zM239.61 31.59a2 2 0 1 1-4 0v-.18c-.97 1.32-2.32 2.29-4.4 2.29-3.29 0-6.42-2.58-6.42-7.29v-.05c0-4.71 3.08-7.29 6.42-7.29 2.13 0 3.45.97 4.4 2.11v-5.11a2 2 0 1 1 4 0v15.52zm-10.83-5.24v.05c0 2.34 1.58 3.9 3.45 3.9s3.42-1.55 3.42-3.9v-.05c0-2.34-1.55-3.9-3.42-3.9-1.87.01-3.45 1.53-3.45 3.9zM249.56 33.75c-4.24 0-7.37-2.98-7.37-7.29v-.05c0-4.03 2.87-7.35 6.98-7.35 4.71 0 6.79 3.87 6.79 6.79 0 1.16-.82 1.92-1.87 1.92h-7.93c.39 1.82 1.66 2.76 3.45 2.76 1.11 0 2.03-.34 2.84-.95.29-.21.55-.32.97-.32.9 0 1.55.68 1.55 1.58 0 .53-.24.92-.53 1.18-1.22 1.07-2.83 1.73-4.88 1.73zm2.58-8.48c-.24-1.79-1.29-3-2.98-3-1.66 0-2.74 1.18-3.05 3h6.03zM264.22 33.73h-.21c-1.08 0-1.82-.68-2.26-1.74l-4.32-9.98c-.11-.26-.21-.61-.21-.97 0-.95.87-1.87 1.95-1.87s1.66.61 1.95 1.42l3.03 8.19 3.08-8.24c.26-.68.82-1.37 1.87-1.37 1.05 0 1.92.82 1.92 1.9 0 .34-.13.76-.21.95L266.49 32c-.45 1.01-1.19 1.73-2.27 1.73zM272.7 32.09c-.42-.26-.76-.74-.76-1.37 0-.9.68-1.58 1.58-1.58.29 0 .58.08.79.21 1.34.84 2.69 1.26 3.82 1.26 1.16 0 1.69-.42 1.69-1.05v-.05c0-.87-1.37-1.16-2.92-1.63-1.97-.58-4.21-1.5-4.21-4.24v-.05c0-2.87 2.32-4.48 5.16-4.48 1.47 0 3 .4 4.37 1.08.58.29.95.82.95 1.5 0 .9-.71 1.58-1.61 1.58-.29 0-.47-.05-.74-.18-1.13-.55-2.21-.9-3.05-.9-.97 0-1.47.42-1.47.97v.05c0 .79 1.34 1.16 2.87 1.69 1.97.66 4.27 1.61 4.27 4.19v.05c0 3.13-2.34 4.55-5.4 4.55-1.76.01-3.63-.49-5.34-1.6z"></path><path class="welovedevs_long_svg__st1" d="M291.18 29.06c1.32 0 2.29.97 2.29 2.24v.05c0 1.26-.97 2.24-2.29 2.24s-2.29-.97-2.29-2.24v-.05c0-1.26.97-2.24 2.29-2.24zM295.21 26.46v-.05c0-4.03 3.08-7.35 7.4-7.35 2.13 0 3.63.58 4.82 1.58.26.21.63.68.63 1.37 0 1-.82 1.79-1.82 1.79-.53 0-.92-.21-1.16-.39-.71-.55-1.45-.9-2.5-.9-2 0-3.42 1.76-3.42 3.84v.05c0 2.16 1.4 3.9 3.58 3.9 1.05 0 1.87-.37 2.63-.97.21-.16.61-.37 1.08-.37.95 0 1.69.76 1.69 1.71 0 .53-.24.95-.58 1.26-1.18 1.08-2.69 1.82-5 1.82-4.25 0-7.35-3.26-7.35-7.29zM309.53 26.46v-.05c0-4.05 3.26-7.35 7.66-7.35 4.37 0 7.61 3.24 7.61 7.29v.05c0 4.05-3.26 7.35-7.66 7.35-4.37 0-7.61-3.24-7.61-7.29zm11.32 0v-.05c0-2.08-1.5-3.9-3.71-3.9-2.29 0-3.66 1.76-3.66 3.84v.05c0 2.08 1.5 3.9 3.71 3.9 2.29 0 3.66-1.76 3.66-3.84zM327.38 21.17a2 2 0 1 1 4 0v.16c.92-1.18 2.13-2.26 4.16-2.26 1.84 0 3.24.82 3.98 2.24 1.24-1.45 2.71-2.24 4.63-2.24 2.98 0 4.77 1.79 4.77 5.19v7.35a2 2 0 1 1-4 0v-6.03c0-1.9-.84-2.87-2.34-2.87s-2.42.97-2.42 2.87v6.03a2 2 0 1 1-4 0v-6.03c0-1.9-.84-2.87-2.34-2.87s-2.42.97-2.42 2.87v6.03a2 2 0 1 1-4 0V21.17z"></path></svg>
