<?xml version="1.0" encoding="UTF-8" standalone="no"?>
<svg
   xmlns:dc="http://purl.org/dc/elements/1.1/"
   xmlns:cc="http://creativecommons.org/ns#"
   xmlns:rdf="http://www.w3.org/1999/02/22-rdf-syntax-ns#"
   xmlns:svg="http://www.w3.org/2000/svg"
   xmlns="http://www.w3.org/2000/svg"
   viewBox="0 0 199.03999 73.279999"
   height="73.279999"
   width="199.03999"
   xml:space="preserve"
   id="svg2"
   version="1.1"><metadata
     id="metadata8"><rdf:RDF><cc:Work
         rdf:about=""><dc:format>image/svg+xml</dc:format><dc:type
           rdf:resource="http://purl.org/dc/dcmitype/StillImage" /></cc:Work></rdf:RDF></metadata><defs
     id="defs6" /><g
     transform="matrix(1.3333333,0,0,-1.3333333,0,73.28)"
     id="g10"><g
       transform="scale(0.1)"
       id="g12"><path
         id="path14"
         style="fill:#ffffff;fill-opacity:1;fill-rule:nonzero;stroke:none"
         d="M 302.406,190.406 C 302.406,89.6055 252.008,0 122.402,0 36.8008,0 0,44 0,83.2031 c 0,24.8009 17.6016,42.4019 44.0039,42.4019 23.1992,0 42.3984,-17.601 42.3984,-42.4019 0,-26.4023 -18.3984,-40 -18.3984,-52.8047 0,-12.7968 12.3984,-17.1992 64.3981,-17.1992 100.805,0 97.203,82 97.203,170.8048 v 241.605 c 0,109.606 -7.199,119.204 -46.402,120.801 l -16.797,0.801 v 2.402 h 199.203 v -2.402 l -16.8,-0.801 c -39.2,-1.597 -46.403,-11.195 -46.403,-120.801 V 190.406" /><path
         id="path16"
         style="fill:#ffffff;fill-opacity:1;fill-rule:nonzero;stroke:none"
         d="m 559.215,536.41 c -35.199,0 -37.598,-2.797 -37.598,-110.801 V 134.402 c 0,-107.9997 2.399,-110.8043 37.598,-110.8043 h 88.805 c 135.199,0 188,120.4063 188,256.4063 0,141.605 -63.2,256.406 -188,256.406 z M 385.609,12.8008 402.41,13.5977 c 39.199,1.6015 46.403,11.2031 46.403,120.8043 v 291.207 c 0,109.606 -7.204,119.204 -46.403,120.801 l -16.801,0.801 v 2.402 H 648.02 c 176.8,0 270.402,-121.605 270.402,-268.808 0,-148.004 -98.402,-270.4066 -269.606,-270.4066 H 385.609 v 2.4024" /><path
         id="path18"
         style="fill:#ffffff;fill-opacity:1;fill-rule:nonzero;stroke:none"
         d="m 1409.23,112.402 v 255.203 c 0,65.602 -12.39,175.606 -73.19,178.805 l -16.81,0.801 v 2.402 h 173.61 v -2.402 l -8.8,-0.801 c -44.01,-4 -61.6,-65.601 -61.6,-188.805 V 3.19922 h -11.2 L 1002.03,491.609 V 192.402 c 0,-65.601 12.39,-175.6012 73.2,-178.8043 l 16.8,-0.7969 V 10.3984 H 918.422 v 2.4024 l 8.801,0.7969 c 44.004,4.0039 61.601,65.6054 61.601,188.8043 v 223.207 c 0,109.606 -16.797,119.204 -56.004,120.801 l -14.398,0.801 v 2.402 h 131.998 l 358.81,-437.211" /></g></g></svg>